mtllib decomp.mtl
o .\meshes\capsule000
usemtl Material000
v 0.000000000 0.937597541 0.246296752
v 0.246296752 -0.937597541 0.000000000
v 0.246296752 0.937597541 0.000000000
v -0.006657329 0.975982927 -0.234184617
v -0.234184617 -0.975982927 -0.006657329
v 0.176712085 -0.953933667 -0.161556055
v 0.064508726 1.132317515 0.064508726
v 0.175961371 0.937204570 0.169898949
v 0.000000000 -0.937597541 0.246296752
v -0.234184638 0.975982934 -0.006657179
v 0.197899011 0.937187061 -0.116940709
v -0.028852554 -0.937275895 -0.234377372
v 0.064508726 -1.132317515 0.064508726
v 0.242269652 -0.915085499 0.015075573
v 0.140187106 1.050605749 0.140187106
v 0.169898939 0.937204569 0.175961377
v -0.095328407 1.110046824 -0.095328407
v -0.126326916 1.074490369 0.126326916
v 0.197898991 -0.937187105 -0.116940701
v 0.167664327 0.975418507 -0.167664327
v 0.037013318 -0.915043258 -0.233186955
v -0.172575695 0.952522567 -0.172575695
v 0.137733748 -1.090749387 -0.053154656
v -0.095328407 -1.110046824 -0.095328407
v -0.126326916 -1.074490369 0.126326916
v 0.157693180 -1.010558497 0.157693180
v 0.242269650 0.915085499 0.015075560
v 0.197360214 0.995670974 0.081140435
v 0.015075573 0.915085499 0.242269652
v 0.081140435 0.995670974 0.197360214
v 0.157693180 1.010558497 0.157693180
v -0.153024682 1.092978542 -0.009681647
v 0.176712195 0.953933667 -0.161555944
v 0.137733748 1.090749388 -0.053154656
v 0.015762497 -1.051436791 -0.191043694
v 0.167664327 -0.975418507 -0.167664327
v 0.037013301 0.915043257 -0.233186945
v -0.028852569 0.937275895 -0.234377379
v -0.149268945 1.032847439 -0.149268945
v -0.172575695 -0.952522567 -0.172575695
v -0.234377372 0.937275895 -0.028852554
v 0.062377266 -1.133708556 -0.058583067
v 0.016562077 -1.037730922 0.201627878
v -0.075944678 -1.134057563 0.023049984
v -0.161555944 -0.953933667 0.176712195
v 0.175961377 -0.937204569 0.169898939
v 0.201627797 -1.037731081 0.016562043
v 0.219349744 0.953450381 0.058973086
v 0.169898949 -0.937204570 0.175961371
v 0.058973060 0.953450940 0.219349681
v 0.016562043 1.037731081 0.201627797
v 0.147723009 0.975777058 0.175815597
v 0.201627878 1.037730922 0.016562077
v 0.175815443 0.975777046 0.147723107
v -0.191043694 1.051436791 0.015762497
v -0.058583067 1.133708556 0.062377266
v 0.219296643 0.995670974 -0.028181704
v 0.062377483 1.133708549 -0.058582846
v -0.006657179 -0.975982934 -0.234184638
v 0.219296643 -0.995670974 -0.028181704
v 0.014135958 0.975122416 -0.231347826
v -0.007913391 1.053031159 -0.192986474
v -0.050117927 0.995670974 -0.210210277
v -0.113123337 1.090560981 -0.113123337
f 11 3 2
f 14 2 3
f 19 11 2
f 19 2 6
f 27 14 3
f 27 3 8
f 27 8 14
f 29 16 1
f 29 1 9
f 31 16 8
f 33 6 20
f 33 19 6
f 33 11 19
f 33 3 11
f 36 21 20
f 36 20 6
f 37 20 21
f 38 22 4
f 39 22 10
f 40 24 5
f 40 35 24
f 40 38 12
f 40 22 38
f 41 5 10
f 41 10 22
f 41 40 5
f 41 22 40
f 42 23 13
f 42 24 35
f 42 36 23
f 42 35 36
f 43 25 13
f 43 26 9
f 43 13 26
f 44 13 25
f 44 42 13
f 44 24 42
f 44 25 5
f 44 5 24
f 45 9 1
f 45 1 18
f 45 18 10
f 45 10 5
f 45 5 25
f 45 43 9
f 45 25 43
f 46 26 2
f 46 2 14
f 46 14 8
f 47 2 26
f 47 26 13
f 47 13 23
f 48 8 3
f 48 3 28
f 49 29 9
f 49 16 29
f 49 9 26
f 49 26 46
f 49 46 8
f 49 8 16
f 50 30 1
f 50 1 16
f 51 18 1
f 51 1 30
f 51 15 7
f 51 31 15
f 51 30 31
f 52 31 30
f 52 16 31
f 52 50 16
f 52 30 50
f 53 31 28
f 53 15 31
f 53 28 3
f 53 34 7
f 53 7 15
f 54 31 8
f 54 28 31
f 54 48 28
f 54 8 48
f 55 10 18
f 55 18 32
f 55 39 10
f 55 32 39
f 56 32 18
f 56 17 32
f 56 51 7
f 56 18 51
f 57 33 20
f 57 3 33
f 57 53 3
f 57 20 34
f 57 34 53
f 58 7 34
f 58 56 7
f 58 17 56
f 58 34 20
f 59 36 35
f 59 21 36
f 59 37 21
f 59 4 37
f 59 38 4
f 59 12 38
f 59 40 12
f 59 35 40
f 60 36 6
f 60 6 2
f 60 2 47
f 60 47 23
f 60 23 36
f 61 37 4
f 61 20 37
f 62 17 58
f 62 61 4
f 62 58 20
f 62 20 61
f 63 4 22
f 63 22 39
f 63 62 4
f 63 39 62
f 64 39 32
f 64 32 17
f 64 62 39
f 64 17 62
